<?xml version="1.0" encoding="UTF-8" standalone="no"?>
<svg
   xmlns:dc="http://purl.org/dc/elements/1.1/"
   xmlns:cc="http://creativecommons.org/ns#"
   xmlns:rdf="http://www.w3.org/1999/02/22-rdf-syntax-ns#"
   xmlns:svg="http://www.w3.org/2000/svg"
   xmlns="http://www.w3.org/2000/svg"
   version="1.1"
   id="svg4371"
   viewBox="0 0 400 399.99998"
   height="400"
   width="400">
  <defs
     id="defs4373" />
  <metadata
     id="metadata4376">
    <rdf:RDF>
      <cc:Work
         rdf:about="">
        <dc:format>image/svg+xml</dc:format>
        <dc:type
           rdf:resource="http://purl.org/dc/dcmitype/StillImage" />
        <dc:title></dc:title>
      </cc:Work>
    </rdf:RDF>
  </metadata>
  <rect
     ry="7.354207"
     y="-1.5258789e-05"
     x="0"
     height="400"
     width="400"
     id="rect4149"
     style="opacity:1;fill:#48a9dd;fill-opacity:1;fill-rule:evenodd;stroke:none;stroke-width:13.31498241;stroke-linecap:butt;stroke-linejoin:round;stroke-miterlimit:4;stroke-dasharray:none;stroke-dashoffset:0;stroke-opacity:1" />
  <ellipse
     style="opacity:0.96600001;fill:#1a1a1a;fill-opacity:0;fill-rule:nonzero;stroke:none;stroke-width:0.5;stroke-linejoin:miter;stroke-miterlimit:4;stroke-dasharray:none;stroke-opacity:1"
     id="path4951"
     cx="190"
     cy="191.99998"
     rx="29.821428"
     ry="22.678572" />
  <ellipse
     style="opacity:1;fill:#48a9dd;fill-opacity:1;fill-rule:nonzero;stroke:#ffffff;stroke-width:11.1020298;stroke-linejoin:miter;stroke-miterlimit:4;stroke-dasharray:none;stroke-opacity:1"
     id="path5013"
     cx="200"
     cy="199.99998"
     rx="167.0267"
     ry="168.03685" />
  <g
     id="g8183">
    <path
       id="path5026"
       d="m 207.74186,161.95522 19.46163,-115.935821 -29.7423,-0.0333 -1.7141,0.31649 -1.63594,0.56636 -2.23954,1.23264 -1.63428,1.19934 -2.35851,2.44865 -1.60043,2.19878 -1.44699,2.565235 -1.89518,4.24766 -1.10216,3.93115 -0.88306,4.53084 c -0.18956,1.22706 -0.33656,2.4607 -0.44066,3.69794 -0.0826,0.9812 -0.13813,1.96453 -0.17822,2.94838 -0.0434,1.06554 -0.0687,2.13183 -0.0758,3.19823 0.0357,1.42292 0.10703,2.84495 0.21401,4.2643 0.14065,1.86607 0.34288,3.72751 0.60624,5.58025 l 13.62988,73.842456 13.03541,-0.79958 z"
       style="opacity:1;fill:#ffffff;fill-opacity:1;fill-rule:evenodd;stroke:none;stroke-width:1.27308381px;stroke-linecap:butt;stroke-linejoin:miter;stroke-opacity:1" />
    <path
       id="path5026-9"
       d="m 179.04981,168.58646 -62.62147,-99.490846 -22.22328,19.76695 -1.06889,1.37687 -0.84426,1.51139 -0.85146,2.41039 -0.42181,1.98276 -0.13107,3.39724 0.26852,2.706276 0.62692,2.87771 1.41191,4.43178 1.79326,3.66783 2.35585,3.96967 c 0.67504,1.04208 1.38622,2.06075 2.13183,3.05356 0.5913,0.78735 1.20418,1.55834 1.82894,2.31941 0.67664,0.82427 1.36733,1.63702 2.07164,2.43778 0.97349,1.03841 1.97304,2.0524 2.99739,3.04068 1.34675,1.29933 2.73638,2.55423 4.16586,3.76195 l 59.31191,46.0498 9.19821,-9.2712 z"
       style="opacity:1;fill:#ffffff;fill-opacity:1;fill-rule:evenodd;stroke:none;stroke-width:1.27308381px;stroke-linecap:butt;stroke-linejoin:miter;stroke-opacity:1" />
    <path
       id="path5026-6"
       d="m 165.34811,195.36149 -115.22712,-23.29363 -1.01906,29.72486 0.25951,1.72365 0.51181,1.65382 1.15774,2.27916 1.14452,1.67313 2.36914,2.43837 2.14451,1.67243 2.51588,1.53123 4.1825,2.03492 3.89248,1.23186 4.49907,1.03275 c 1.22011,0.23012 2.44819,0.41793 3.68131,0.56298 0.97792,0.11503 1.95888,0.20316 2.94086,0.27585 1.06351,0.0787 2.12836,0.13934 3.19394,0.18183 1.42333,0.0115 2.84695,-0.0127 4.26906,-0.0726 1.86971,-0.0787 3.73682,-0.21916 5.59727,-0.42096 l 74.25368,-11.17489 -0.3671,-13.05476 z"
       style="opacity:1;fill:#ffffff;fill-opacity:1;fill-rule:evenodd;stroke:none;stroke-width:1.27308381px;stroke-linecap:butt;stroke-linejoin:miter;stroke-opacity:1" />
    <path
       id="path5026-2"
       d="m 170.01806,219.55191 -99.56682,62.50064 19.73994,22.24726 1.37557,1.07056 1.51036,0.8461 2.40935,0.85437 1.98226,0.42427 3.39708,0.13517 2.7066,-0.26527 2.87847,-0.62342 4.43352,-1.40653 3.67001,-1.7888 3.97252,-2.35103 c 1.04289,-0.67378 2.06242,-1.38373 3.05614,-2.12813 0.78807,-0.59035 1.55981,-1.20228 2.32164,-1.82612 0.82509,-0.67564 1.63867,-1.36532 2.44028,-2.06866 1.0396,-0.97224 2.05479,-1.97056 3.04432,-2.99371 1.30097,-1.34517 2.55755,-2.73327 3.76701,-4.16128 l 46.12177,-59.25596 -9.26002,-9.20946 z"
       style="opacity:1;fill:#ffffff;fill-opacity:1;fill-rule:evenodd;stroke:none;stroke-width:1.27308381px;stroke-linecap:butt;stroke-linejoin:miter;stroke-opacity:1" />
    <path
       id="path5026-1"
       d="m 193.04141,237.91306 -21.07086,115.65422 29.73897,0.44659 1.71834,-0.29265 1.64365,-0.54357 2.25646,-1.2014 1.65078,-1.17651 2.39231,-2.41564 1.63083,-2.17632 1.48251,-2.5449 1.95402,-4.22091 1.15667,-3.91545 0.94594,-4.51814 c 0.20658,-1.22431 0.37071,-2.45578 0.492,-3.69146 0.0962,-0.97996 0.16542,-1.96242 0.21919,-2.94562 0.0582,-1.06483 0.0983,-2.13065 0.1203,-3.19685 -0.0159,-1.42329 -0.0674,-2.84619 -0.15468,-4.26689 -0.1147,-1.86784 -0.29103,-3.7319 -0.52863,-5.58812 l -12.60243,-74.02476 -13.04537,0.61838 z"
       style="opacity:1;fill:#ffffff;fill-opacity:1;fill-rule:evenodd;stroke:none;stroke-width:1.27308381px;stroke-linecap:butt;stroke-linejoin:miter;stroke-opacity:1" />
    <path
       id="path5026-7"
       d="m 222.51414,230.71419 63.33874,99.03578 22.07986,-19.92701 1.0589,-1.38457 0.83333,-1.51743 0.83401,-2.41649 0.40748,-1.98576 0.10656,-3.3981 -0.28806,-2.70426 -0.64769,-2.87311 -1.4439,-4.42148 -1.81971,-3.65478 -2.38447,-3.95253 c -0.68256,-1.03717 -1.40108,-2.05068 -2.15385,-3.03808 -0.59698,-0.78305 -1.21541,-1.54959 -1.84565,-2.30613 -0.68258,-0.81936 -1.37911,-1.6271 -2.08918,-2.42276 -0.98097,-1.03135 -1.98782,-2.03809 -3.01929,-3.01894 -1.35611,-1.28957 -2.75476,-2.53438 -4.19293,-3.73175 l -59.64311,-45.62001 -9.13104,9.33741 z"
       style="opacity:1;fill:#ffffff;fill-opacity:1;fill-rule:evenodd;stroke:none;stroke-width:1.27308381px;stroke-linecap:butt;stroke-linejoin:miter;stroke-opacity:1" />
    <path
       id="path5026-20"
       d="m 234.49476,208.47309 114.30192,27.47637 2.10139,-29.66799 -0.19652,-1.73196 -0.45124,-1.67136 -1.07393,-2.31984 -1.08279,-1.71372 -2.27872,-2.52307 -2.08216,-1.74945 -2.45842,-1.62188 -4.10559,-2.18596 -3.845,-1.37285 -4.45846,-1.19598 c -1.21091,-0.27443 -2.43134,-0.50686 -3.65835,-0.69674 -0.97308,-0.15059 -1.95017,-0.2744 -2.92885,-0.38281 -1.05994,-0.11741 -2.12188,-0.21678 -3.18521,-0.29805 -1.42196,-0.0633 -2.84552,-0.091 -4.26887,-0.083 -1.87133,0.0106 -3.74232,0.0829 -5.60889,0.21674 l -74.61152,8.46209 -0.10879,13.05946 z"
       style="opacity:1;fill:#ffffff;fill-opacity:1;fill-rule:evenodd;stroke:none;stroke-width:1.27308381px;stroke-linecap:butt;stroke-linejoin:miter;stroke-opacity:1" />
    <path
       id="path5026-5"
       d="m 232.5328,182.15073 101.3894,-59.49849 -19.06657,-22.826966 -1.34299,-1.11117 -1.48441,-0.89085 -2.38275,-0.92596 -1.96866,-0.48338 -3.39154,-0.23661 -2.71329,0.18426 -2.89583,0.53716 -4.47355,1.27348 -3.72181,1.67836 -4.04097,2.231316 c -1.06256,0.64232 -2.10284,1.32149 -3.11835,2.03587 -0.80535,0.56655 -1.59502,1.15516 -2.37515,1.75596 -0.8449,0.65069 -1.67873,1.31576 -2.50099,1.99483 -1.06818,0.94074 -2.11274,1.90829 -3.13239,2.90142 -1.34057,1.30572 -2.63806,2.65567 -3.88964,4.04692 l -47.87125,57.85176 8.98074,9.48209 z"
       style="opacity:1;fill:#ffffff;fill-opacity:1;fill-rule:evenodd;stroke:none;stroke-width:1.27308381px;stroke-linecap:butt;stroke-linejoin:miter;stroke-opacity:1" />
  </g>
  <ellipse
     style="opacity:1;fill:#ffffff;fill-opacity:1;fill-rule:nonzero;stroke:#48a9dd;stroke-width:9.78237915;stroke-linejoin:miter;stroke-miterlimit:4;stroke-dasharray:none;stroke-opacity:1"
     id="path5011"
     cx="200"
     cy="199.99998"
     rx="34.313683"
     ry="35.262554" />
</svg>
