<?xml version="1.0" encoding="UTF-8" standalone="no"?>
<!-- Created with Inkscape (http://www.inkscape.org/) -->

<svg
   xmlns:dc="http://purl.org/dc/elements/1.1/"
   xmlns:cc="http://creativecommons.org/ns#"
   xmlns:rdf="http://www.w3.org/1999/02/22-rdf-syntax-ns#"
   xmlns:svg="http://www.w3.org/2000/svg"
   xmlns="http://www.w3.org/2000/svg"
   xmlns:sodipodi="http://sodipodi.sourceforge.net/DTD/sodipodi-0.dtd"
   xmlns:inkscape="http://www.inkscape.org/namespaces/inkscape"
   width="210mm"
   height="297mm"
   viewBox="0 0 744.09448819 1052.3622047"
   id="svg2"
   version="1.1"
   inkscape:version="0.91 r13725"
   sodipodi:docname="gift.svg">
  <defs
     id="defs4" />
  <sodipodi:namedview
     id="base"
     pagecolor="#ffffff"
     bordercolor="#666666"
     borderopacity="1.0"
     inkscape:pageopacity="0.0"
     inkscape:pageshadow="2"
     inkscape:zoom="0.70000001"
     inkscape:cx="168.44011"
     inkscape:cy="386.60915"
     inkscape:document-units="px"
     inkscape:current-layer="layer1"
     showgrid="false"
     inkscape:window-width="1855"
     inkscape:window-height="1056"
     inkscape:window-x="65"
     inkscape:window-y="24"
     inkscape:window-maximized="1" />
  <metadata
     id="metadata7">
    <rdf:RDF>
      <cc:Work
         rdf:about="">
        <dc:format>image/svg+xml</dc:format>
        <dc:type
           rdf:resource="http://purl.org/dc/dcmitype/StillImage" />
        <dc:title />
      </cc:Work>
    </rdf:RDF>
  </metadata>
  <g
     inkscape:label="Capa 1"
     inkscape:groupmode="layer"
     id="layer1">
    <rect
       style="fill:#48a9dd;fill-opacity:1;stroke:#4894dd;stroke-width:1.91174173;stroke-opacity:0.4745098"
       id="rect4179"
       width="402.64493"
       height="261.67093"
       x="174.05212"
       y="459.13443" />
    <path
       style="fill:#48a9dd;fill-opacity:1;fill-rule:evenodd;stroke:#4894dd;stroke-width:1.91174173px;stroke-linecap:butt;stroke-linejoin:miter;stroke-opacity:0.47342996"
       d="m 149.91278,379.95725 c 151.27349,0 302.54695,0 453.82044,0 0,34.43884 0,68.8777 0,103.31656 -151.27349,0 -302.54695,0 -453.82044,0 0,-34.43886 0,-68.87772 0,-103.31656 z"
       id="rect3353"
       inkscape:connector-curvature="0" />
    <path
       style="fill:#ffffff;fill-opacity:1;stroke:#4e8300;stroke-width:1.68211544;stroke-opacity:0"
       d="m 340.98263,378.87675 0,105.36265 3.82349,14.48362 0,222.19868 70.67844,0 0,-222.19868 3.82349,-15.44921 0,-104.39706 z m 20.87234,2.04616 37.54407,0 c 4.01196,0 7.23997,3.22801 7.23997,7.23997 l 0,96.07652 -3.82348,15.4492 0,210.01282 c 0,4.01196 -3.22802,7.23998 -7.23998,7.23998 l -29.8971,0 c -4.01196,0 -7.23997,-3.22802 -7.23997,-7.23998 l 0,-210.9784 -3.82349,-15.44921 0,-95.11093 c 0,-4.01196 3.22802,-7.23997 7.23998,-7.23997 z"
       id="rect4159"
       inkscape:connector-curvature="0"
       sodipodi:nodetypes="cccccccccsssccssssccss" />
    <rect
       style="fill:#000000;fill-opacity:0.1594203;stroke:#4e8300;stroke-width:1.91174173;stroke-opacity:0"
       id="rect4181"
       width="402.64493"
       height="16.89757"
       x="174.05219"
       y="483.75662" />
    <path
       style="fill:#d30000;fill-opacity:1;fill-rule:evenodd;stroke:#000000;stroke-width:1.91174173px;stroke-linecap:butt;stroke-linejoin:miter;stroke-opacity:0"
       d="m 282.19657,295.95122 c -33.96297,8.78949 -50.10856,50.39034 -38.62314,57.93475 -16.32724,-3.98079 -37.17197,-19.61166 -56.00433,-38.62317 l 8.69244,28.00403 -27.03696,3.86082 c 30.25469,15.09295 60.50826,29.40903 90.76295,31.86486 l 222.08313,1.9304 c 38.28252,-6.66418 72.66879,-15.9237 95.59084,-32.82818 -7.40274,-1.73885 -14.8026,1.82797 -22.20534,-6.76204 l 6.75831,-24.13947 c -18.20901,15.03845 -36.44525,30.15363 -52.1435,37.6598 -2.83054,-51.06943 -31.60727,-53.59883 -44.41439,-58.9018 -36.19416,15.5483 -42.82416,64.20518 -93.66041,70.48801 -34.15191,-5.28413 -63.23616,-71.00008 -89.7996,-70.48801 z m 0.96708,24.13947 c 22.74678,17.20296 35.12896,36.18618 45.38146,50.20936 -25.84855,-2.30631 -53.18317,-2.5327 -66.62718,-22.20532 -1.98936,-20.92629 11.18552,-21.53723 21.24572,-28.00404 z m 182.49293,0.96708 c 16.24795,5.34521 22.60474,14.64447 26.06989,25.10281 -23.17381,24.79202 -47.31421,19.85353 -70.48802,20.27865 19.20706,-24.25236 32.84158,-36.3901 44.41813,-45.38146 z"
       id="path4210"
       inkscape:connector-curvature="0" />
  </g>
</svg>
