<?xml version="1.0" encoding="UTF-8" standalone="no"?>
<svg
   xmlns:dc="http://purl.org/dc/elements/1.1/"
   xmlns:cc="http://creativecommons.org/ns#"
   xmlns:rdf="http://www.w3.org/1999/02/22-rdf-syntax-ns#"
   xmlns:svg="http://www.w3.org/2000/svg"
   xmlns="http://www.w3.org/2000/svg"
   version="1.1"
   id="svg2"
   viewBox="0 0 744.09448819 1052.3622047"
   height="297mm"
   width="210mm">
  <defs
     id="defs4" />
  <metadata
     id="metadata7">
    <rdf:RDF>
      <cc:Work
         rdf:about="">
        <dc:format>image/svg+xml</dc:format>
        <dc:type
           rdf:resource="http://purl.org/dc/dcmitype/StillImage" />
        <dc:title></dc:title>
      </cc:Work>
    </rdf:RDF>
  </metadata>
  <g
     id="g4282">
    <rect
       style="opacity:1;fill:#48a9dd;fill-opacity:1;fill-rule:nonzero;stroke:#e5a9dd;stroke-width:0;stroke-linejoin:round;stroke-miterlimit:4;stroke-dasharray:none;stroke-opacity:1"
       id="rect4256"
       width="11.922673"
       height="7.2915521"
       x="295.64615"
       y="508.83926" />
    <path
       id="path4273"
       style="opacity:1;fill:#48a9dd;fill-opacity:1;fill-rule:nonzero;stroke:#e5a9dd;stroke-width:0;stroke-linejoin:round;stroke-miterlimit:4;stroke-dasharray:none;stroke-opacity:1"
       d="m 266.4899,318.7642 a 36.260693,34.092934 43.090359 0 0 49.76952,-0.12557 36.260693,34.092934 43.090359 0 0 0.12906,-0.1494 l -52.94653,-49.52977 a 36.260693,34.092934 43.090359 0 0 -0.14189,0.13739 36.260693,34.092934 43.090359 0 0 3.18984,49.66735 z m 83.09064,-89.44601 a 83.360176,85.725006 43.101942 0 0 -119.43945,5.63156 83.360176,85.725006 43.101942 0 0 -0.13041,0.14813 l 121.71648,113.908 a 83.360176,85.725006 43.101942 0 0 0.14209,-0.13721 83.360176,85.725006 43.101942 0 0 -2.28844,-119.55022 z m 30.30074,-66.89109 c -9.84538,0.0202 -19.59638,4.63473 -26.83687,12.70021 l -0.007,-0.007 -29.42468,34.78582 c 10.33582,4.89595 20.84002,10.93109 29.3798,19.4893 8.35741,8.42258 14.61693,19.12893 19.89435,29.72571 l 5.99654,-7.09059 124.13461,127.4805 -113.43706,134.20434 -125.76859,-0.0985 0.10375,17.16834 1.26465,0 228.03115,0 0,-17.06981 -81.93441,0 112.87908,-133.54767 1.30512,-1.50545 -135.75889,-139.41923 12.49972,-14.77848 -0.0164,-0.0143 c 12.93001,-16.25278 12.6633,-39.72235 -0.60287,-53.05022 l -0.003,0 c -5.81043,-5.8114 -13.49585,-8.98947 -21.69975,-8.97327 z m 135.72376,216.54414 c 0,1.86165 -1.33956,3.37081 -2.99199,3.37082 -1.65243,-1e-5 -2.99199,-1.50917 -2.99199,-3.37082 10e-6,-1.86164 1.33956,-3.37079 2.99199,-3.3708 1.65243,1e-5 2.99198,1.50916 2.99199,3.3708 z m -57.04806,-61.63588 c 0,1.86164 -1.33956,3.3708 -2.99199,3.37081 -1.65244,0 -2.992,-1.50916 -2.992,-3.37081 0,-1.86165 1.33956,-3.37082 2.992,-3.37082 1.65243,10e-6 2.99199,1.50917 2.99199,3.37082 z m 30.37498,94.80041 c -1e-5,1.86164 -1.33956,3.37079 -2.99199,3.3708 -1.65244,10e-6 -2.992,-1.50915 -2.99201,-3.3708 0,-1.86166 1.33957,-3.37083 2.99201,-3.37082 1.65243,10e-6 2.99199,1.50917 2.99199,3.37082 z m -28.5972,33.01464 c 0,1.86166 -1.33957,3.37083 -2.99201,3.37082 -1.65243,-10e-6 -2.99199,-1.50917 -2.99199,-3.37082 1e-5,-1.86164 1.33956,-3.37079 2.99199,-3.3708 1.65244,-10e-6 2.992,1.50915 2.99201,3.3708 z m -29.56329,36.517 c 0,1.86165 -1.33956,3.37081 -2.99199,3.37082 -1.65244,0 -2.992,-1.50917 -2.992,-3.37082 0,-1.86165 1.33956,-3.37081 2.992,-3.37081 1.65243,10e-6 2.99199,1.50917 2.99199,3.37081 z m 57.49535,-132.75214 c 0,1.86165 -1.33956,3.37081 -2.99199,3.37082 -1.65244,10e-6 -2.99201,-1.50916 -2.99201,-3.37082 10e-6,-1.86165 1.33957,-3.37081 2.99201,-3.3708 1.65243,1e-5 2.99198,1.50916 2.99199,3.3708 z m -64.45039,-66.79526 c 0,1.86165 -1.33956,3.37081 -2.99199,3.37082 -1.65243,-1e-5 -2.99199,-1.50917 -2.99199,-3.37082 1e-5,-1.86164 1.33956,-3.37079 2.99199,-3.3708 1.65243,10e-6 2.99198,1.50916 2.99199,3.3708 z" />
  </g>
</svg>
