<?xml version="1.0" encoding="UTF-8" standalone="no"?>
<svg
   xmlns:dc="http://purl.org/dc/elements/1.1/"
   xmlns:cc="http://creativecommons.org/ns#"
   xmlns:rdf="http://www.w3.org/1999/02/22-rdf-syntax-ns#"
   xmlns:svg="http://www.w3.org/2000/svg"
   xmlns="http://www.w3.org/2000/svg"
   xmlns:sodipodi="http://sodipodi.sourceforge.net/DTD/sodipodi-0.dtd"
   xmlns:inkscape="http://www.inkscape.org/namespaces/inkscape"
   width="210mm"
   height="297mm"
   viewBox="0 0 744.09448819 1052.3622047"
   id="svg2"
   version="1.1"
   inkscape:version="0.91 r13725"
   sodipodi:docname="lampORIGINAL.svg">
  <sodipodi:namedview
     pagecolor="#ffffff"
     bordercolor="#666666"
     borderopacity="1"
     objecttolerance="10"
     gridtolerance="10"
     guidetolerance="10"
     inkscape:pageopacity="0"
     inkscape:pageshadow="2"
     inkscape:window-width="746"
     inkscape:window-height="480"
     id="namedview6"
     showgrid="false"
     inkscape:zoom="0.22425739"
     inkscape:cx="372.04724"
     inkscape:cy="526.1811"
     inkscape:window-x="75"
     inkscape:window-y="34"
     inkscape:window-maximized="0"
     inkscape:current-layer="svg2" />
  <defs
     id="defs4" />
  <metadata
     id="metadata7">
    <rdf:RDF>
      <cc:Work
         rdf:about="">
        <dc:format>image/svg+xml</dc:format>
        <dc:type
           rdf:resource="http://purl.org/dc/dcmitype/StillImage" />
        <dc:title></dc:title>
      </cc:Work>
    </rdf:RDF>
  </metadata>
  <path
     d="m 422.70164,283.2348 a 2.9919983,3.3708112 0 0 1 -2.99199,3.37082 2.9919983,3.3708112 0 0 1 -2.99199,-3.37082 2.9919983,3.3708112 0 0 1 2.99199,-3.3708 2.9919983,3.3708112 0 0 1 2.99199,3.3708 z m 64.45039,66.79526 a 2.9919983,3.3708112 0 0 1 -2.99199,3.37082 2.9919983,3.3708112 0 0 1 -2.99201,-3.37082 2.9919983,3.3708112 0 0 1 2.99201,-3.3708 2.9919983,3.3708112 0 0 1 2.99199,3.3708 z M 429.65668,482.7822 a 2.9919983,3.3708112 0 0 1 -2.99199,3.37082 2.9919983,3.3708112 0 0 1 -2.992,-3.37082 2.9919983,3.3708112 0 0 1 2.992,-3.37081 2.9919983,3.3708112 0 0 1 2.99199,3.37081 z m 29.56329,-36.517 a 2.9919983,3.3708112 0 0 1 -2.99201,3.37082 2.9919983,3.3708112 0 0 1 -2.99199,-3.37082 2.9919983,3.3708112 0 0 1 2.99199,-3.3708 2.9919983,3.3708112 0 0 1 2.99201,3.3708 z m 28.5972,-33.01464 a 2.9919983,3.3708112 0 0 1 -2.99199,3.3708 2.9919983,3.3708112 0 0 1 -2.99201,-3.3708 2.9919983,3.3708112 0 0 1 2.99201,-3.37082 2.9919983,3.3708112 0 0 1 2.99199,3.37082 z m -30.37498,-94.80041 a 2.9919983,3.3708112 0 0 1 -2.99199,3.37081 2.9919983,3.3708112 0 0 1 -2.992,-3.37081 2.9919983,3.3708112 0 0 1 2.992,-3.37082 2.9919983,3.3708112 0 0 1 2.99199,3.37082 z m 57.04806,61.63588 a 2.9919983,3.3708112 0 0 1 -2.99199,3.37082 2.9919983,3.3708112 0 0 1 -2.99199,-3.37082 2.9919983,3.3708112 0 0 1 2.99199,-3.3708 2.9919983,3.3708112 0 0 1 2.99199,3.3708 z M 378.76649,163.54189 a 34.242401,38.973651 21.86308 0 0 -26.83687,12.70021 l -0.007,-0.007 -29.42468,34.78582 a 89.135457,70.737199 53.652814 0 1 28.61338,20.39507 89.135457,70.737199 53.652814 0 1 20.66077,28.81994 l 5.99654,-7.09059 124.13461,127.4805 -113.43706,134.20434 -188.9292,0 0,17.06981 292.56016,0 0,-17.06981 -81.93441,0 112.87908,-133.54767 1.30512,-1.50545 -135.75889,-139.41923 12.49972,-14.77848 -0.0164,-0.0143 a 34.242401,38.973651 21.86308 0 0 -0.60287,-53.05022 l -0.003,0 a 34.242401,38.973651 21.86308 0 0 -21.69975,-8.97327 z m -83.84561,44.93271 a 85.665222,93.655769 6.2281295 0 0 -67.14833,30.77248 85.665222,93.655769 6.2281295 0 0 -1.53599,1.94206 l 124.68615,125.53497 a 85.665222,93.655769 6.2281295 0 0 1.86951,-2.00494 85.665222,93.655769 6.2281295 0 0 -3.79353,-132.154 85.665222,93.655769 6.2281295 0 0 -54.07781,-24.09057 z m -46.21717,61.66927 a 45.825963,50.229056 8.5179916 0 0 2.60704,69.75329 45.825963,50.229056 8.5179916 0 0 63.92239,-2.76988 l -66.52943,-66.98341 z"
     style="opacity:1;fill:#48a9dd;fill-opacity:1;fill-rule:nonzero;stroke:#48a9dd;stroke-width:0.80000001;stroke-linejoin:round;stroke-miterlimit:4;stroke-dasharray:none;stroke-opacity:1"
     id="path4259-2-7" />
</svg>
