<?xml version="1.0" encoding="UTF-8" standalone="no"?>
<svg
   xmlns:dc="http://purl.org/dc/elements/1.1/"
   xmlns:cc="http://creativecommons.org/ns#"
   xmlns:rdf="http://www.w3.org/1999/02/22-rdf-syntax-ns#"
   xmlns:svg="http://www.w3.org/2000/svg"
   xmlns="http://www.w3.org/2000/svg"
   xmlns:sodipodi="http://sodipodi.sourceforge.net/DTD/sodipodi-0.dtd"
   xmlns:inkscape="http://www.inkscape.org/namespaces/inkscape"
   version="1.1"
   id="svg2"
   viewBox="0 0 450.00005 450.00003"
   height="127.00001mm"
   width="127.00002mm"
   inkscape:version="0.91 r13725"
   sodipodi:docname="lampPLANO.svg">
  <sodipodi:namedview
     pagecolor="#ffffff"
     bordercolor="#666666"
     borderopacity="1"
     objecttolerance="10"
     gridtolerance="10"
     guidetolerance="10"
     inkscape:pageopacity="0"
     inkscape:pageshadow="2"
     inkscape:window-width="1855"
     inkscape:window-height="1056"
     id="namedview7"
     showgrid="false"
     fit-margin-top="0"
     fit-margin-left="0"
     fit-margin-right="0"
     fit-margin-bottom="0"
     inkscape:zoom="1.2685914"
     inkscape:cx="114.85204"
     inkscape:cy="200.88314"
     inkscape:window-x="65"
     inkscape:window-y="24"
     inkscape:window-maximized="1"
     inkscape:current-layer="svg2" />
  <defs
     id="defs4" />
  <metadata
     id="metadata7">
    <rdf:RDF>
      <cc:Work
         rdf:about="">
        <dc:format>image/svg+xml</dc:format>
        <dc:type
           rdf:resource="http://purl.org/dc/dcmitype/StillImage" />
        <dc:title></dc:title>
      </cc:Work>
    </rdf:RDF>
  </metadata>
  <rect
     y="430.42725"
     x="65.458672"
     height="7.2915521"
     width="11.922673"
     id="rect4256"
     style="opacity:1;fill:#48a9dd;fill-opacity:1;fill-rule:nonzero;stroke:#48a9dd;stroke-width:1.5;stroke-linejoin:round;stroke-miterlimit:4;stroke-dasharray:none;stroke-opacity:1" />
  <path
     d="m 55.81773,191.03898 a 53.806522,42.62054 7.5856312 0 0 75.68899,-0.15317 53.806522,42.62054 7.5856312 0 0 0.19627,-0.18223 L 51.18243,130.2878 a 53.806522,42.62054 7.5856312 0 0 -0.21579,0.16759 53.806522,42.62054 7.5856312 0 0 4.85109,60.58359 z M 182.18115,81.933876 a 103.11644,128.55578 86.392836 0 0 -181.64233958,6.8693 103.11644,128.55578 86.392836 0 0 -0.19833,0.1807 L 185.4457,227.92741 a 103.11644,128.55578 86.392836 0 0 0.21609,-0.16737 103.11644,128.55578 86.392836 0 0 -3.48023,-145.825854 z M 228.26221,0.34097791 C 213.28946,0.36562791 198.46024,5.9943579 187.44897,15.83253 l -0.0106,-0.0085 -44.74877,42.431306 c 15.71861,5.97202 31.6933,13.3336 44.68051,23.7728 12.70986,10.27376 22.22928,23.333234 30.25513,36.259034 l 9.11948,-8.649 188.78269,155.49909 -172.51396,163.70075 -191.26763,-0.12019 0.15778,20.94172 1.92326,0 346.78753,0 0,-20.82153 -124.60505,0 171.6654,-162.89975 1.98482,-1.83633 -206.46079,-170.061814 19.00945,-18.0266 -0.0249,-0.0174 c 19.66383,-19.82493 19.25821,-48.45282 -0.91684,-64.70998 l -0.005,0 C 252.42505,4.1973839 240.73713,0.32080791 228.26072,0.34057491 Z M 434.66957,264.47876 c 0,2.27083 -2.03719,4.11168 -4.55019,4.11169 -2.513,-10e-6 -4.55019,-1.84086 -4.55019,-4.11169 2e-5,-2.2708 2.03719,-4.11164 4.55019,-4.11165 2.513,10e-6 4.55018,1.84085 4.55019,4.11165 z m -86.75813,-75.18265 c 0,2.2708 -2.03719,4.11166 -4.55019,4.11167 -2.51301,0 -4.55019,-1.84085 -4.55019,-4.11167 0,-2.27083 2.03718,-4.11169 4.55019,-4.11169 2.513,1e-5 4.55019,1.84086 4.55019,4.11169 z m 46.19397,115.63633 c -2e-5,2.2708 -2.03718,4.11164 -4.55018,4.11165 -2.51302,2e-5 -4.55021,-1.84084 -4.55022,-4.11165 0,-2.27083 2.0372,-4.11169 4.55022,-4.11168 2.513,10e-6 4.55018,1.84086 4.55018,4.11168 z m -43.49034,40.27084 c 0,2.27083 -2.0372,4.11169 -4.55021,4.11168 -2.513,-10e-6 -4.55019,-1.84086 -4.55019,-4.11168 10e-6,-2.27081 2.03719,-4.11165 4.55019,-4.11166 2.51301,-2e-5 4.5502,1.84084 4.55021,4.11166 z m -44.95956,44.54297 c 0,2.27081 -2.03719,4.11166 -4.55019,4.11168 -2.51301,0 -4.55019,-1.84087 -4.55019,-4.11168 0,-2.27082 2.03718,-4.11167 4.55019,-4.11167 2.513,10e-6 4.55019,1.84086 4.55019,4.11167 z m 87.43837,-161.92938 c 0,2.27083 -2.0372,4.11168 -4.5502,4.11169 -2.51301,2e-5 -4.55021,-1.84085 -4.55021,-4.11169 2e-5,-2.27081 2.0372,-4.11166 4.55021,-4.11165 2.513,1e-5 4.55018,1.84085 4.5502,4.11165 z m -98.01552,-81.476 c 0,2.27082 -2.03719,4.11167 -4.55019,4.11168 -2.513,-1e-5 -4.55019,-1.84086 -4.55019,-4.11168 10e-6,-2.2708 2.03719,-4.11165 4.55019,-4.11167 2.513,2e-5 4.55017,1.84087 4.55019,4.11167 z"
     style="opacity:1;fill:#48a9dd;fill-opacity:1;fill-rule:nonzero;stroke:#48a9dd;stroke-width:0.68099934;stroke-linejoin:round;stroke-miterlimit:4;stroke-dasharray:none;stroke-opacity:1"
     id="path4273"
     inkscape:connector-curvature="0" />
</svg>
